HIERARCHY
ROOT Hips
{
  OFFSET 5.72205e-005 65.662 3.42586
  CHANNELS 6 Xposition Yposition Zposition Zrotation Xrotation Yrotation
  JOINT Chest
  {
    OFFSET 0 8.7983 -4.7612
    CHANNELS 6 Xposition Yposition Zposition Zrotation Xrotation Yrotation
    JOINT Chest2
    {
      OFFSET 0 8.0291 0.4195
      CHANNELS 6 Xposition Yposition Zposition Zrotation Xrotation Yrotation
      JOINT Chest3
      {
        OFFSET 0 9.9351 -2.2114
        CHANNELS 6 Xposition Yposition Zposition Zrotation Xrotation Yrotation
        JOINT Neck
        {
          OFFSET 0 22.3885 -0.4656
          CHANNELS 6 Xposition Yposition Zposition Zrotation Xrotation Yrotation
          JOINT Head
          {
            OFFSET -0.0001 12.643 3.4389
            CHANNELS 6 Xposition Yposition Zposition Zrotation Xrotation Yrotation
            End Site
            {
              OFFSET 0.0001 17.6655 0.5274
            }
          }
        }
        JOINT LeftCollar
        {
          OFFSET 2.2603 21.606 7.4023
          CHANNELS 6 Xposition Yposition Zposition Zrotation Xrotation Yrotation
          JOINT LeftShoulder
          {
            OFFSET 13.5163 -1.1332 -5.0146
            CHANNELS 6 Xposition Yposition Zposition Zrotation Xrotation Yrotation
            JOINT LeftElbow
            {
              OFFSET -0.0995 -28.05 -0.2431
              CHANNELS 6 Xposition Yposition Zposition Zrotation Xrotation Yrotation
              JOINT LeftWrist
              {
                OFFSET 0.0679 -23.3996 -0.1402
                CHANNELS 6 Xposition Yposition Zposition Zrotation Xrotation Yrotation
                JOINT LeftFinger1
                {
                  OFFSET 0.7932 -9.069 2.5189
                  CHANNELS 6 Xposition Yposition Zposition Zrotation Xrotation Yrotation
                  JOINT LeftFinger11
                  {
                    OFFSET -0.8272 -3.3923 0.5977
                    CHANNELS 6 Xposition Yposition Zposition Zrotation Xrotation Yrotation
                    JOINT LeftFinger12
                    {
                      OFFSET -0.5649 -2.3158 0.4082
                      CHANNELS 6 Xposition Yposition Zposition Zrotation Xrotation Yrotation
                      End Site
                      {
                        OFFSET -0.4919 -1.6479 0.2673
                      }
                    }
                  }
                }
                JOINT LeftFinger2
                {
                  OFFSET 0.9159 -9.2044 0.2193
                  CHANNELS 6 Xposition Yposition Zposition Zrotation Xrotation Yrotation
                  JOINT LeftFinger21
                  {
                    OFFSET 0.0117 -4.1944 -0.0248
                    CHANNELS 6 Xposition Yposition Zposition Zrotation Xrotation Yrotation
                    JOINT LeftFinger22
                    {
                      OFFSET 0.0071 -2.3249 -0.0142
                      CHANNELS 6 Xposition Yposition Zposition Zrotation Xrotation Yrotation
                      End Site
                      {
                        OFFSET -0.1475 -2.0882 0.0028
                      }
                    }
                  }
                }
                JOINT LeftFinger3
                {
                  OFFSET 0.6113 -8.7231 -2.0637
                  CHANNELS 6 Xposition Yposition Zposition Zrotation Xrotation Yrotation
                  JOINT LeftFinger31
                  {
                    OFFSET -0.1927 -3.8059 -0.2383
                    CHANNELS 6 Xposition Yposition Zposition Zrotation Xrotation Yrotation
                    JOINT LeftFinger32
                    {
                      OFFSET -0.1091 -2.1688 -0.1362
                      CHANNELS 6 Xposition Yposition Zposition Zrotation Xrotation Yrotation
                      End Site
                      {
                        OFFSET -0.2358 -1.9176 -0.0906
                      }
                    }
                  }
                }
                JOINT LeftFinger4
                {
                  OFFSET -0.6151 -8.0947 -3.5641
                  CHANNELS 6 Xposition Yposition Zposition Zrotation Xrotation Yrotation
                  JOINT LeftFinger41
                  {
                    OFFSET -0.4882 -2.341 -0.6462
                    CHANNELS 6 Xposition Yposition Zposition Zrotation Xrotation Yrotation
                    JOINT LeftFinger42
                    {
                      OFFSET -0.3575 -1.7167 -0.4742
                      CHANNELS 6 Xposition Yposition Zposition Zrotation Xrotation Yrotation
                      End Site
                      {
                        OFFSET -0.4187 -1.5237 -0.3496
                      }
                    }
                  }
                }
                JOINT LeftFinger0
                {
                  OFFSET -1.42 -1.8761 1.4223
                  CHANNELS 6 Xposition Yposition Zposition Zrotation Xrotation Yrotation
                  JOINT LeftFinger01
                  {
                    OFFSET -1.1471 -3.4929 2.6334
                    CHANNELS 6 Xposition Yposition Zposition Zrotation Xrotation Yrotation
                    JOINT LeftFinger02
                    {
                      OFFSET -0.823 -2.3 1.6571
                      CHANNELS 6 Xposition Yposition Zposition Zrotation Xrotation Yrotation
                      End Site
                      {
                        OFFSET -0.5822 -1.6914 1.1582
                      }
                    }
                  }
                }
              }
            }
          }
        }
        JOINT RightCollar
        {
          OFFSET -2.2603 21.606 7.4023
          CHANNELS 6 Xposition Yposition Zposition Zrotation Xrotation Yrotation
          JOINT RightShoulder
          {
            OFFSET -13.5187 -1.1334 -5.0155
            CHANNELS 6 Xposition Yposition Zposition Zrotation Xrotation Yrotation
            JOINT RightElbow
            {
              OFFSET 0.0994 -28.0499 -0.2431
              CHANNELS 6 Xposition Yposition Zposition Zrotation Xrotation Yrotation
              JOINT RightWrist
              {
                OFFSET -0.0679 -23.3996 -0.1402
                CHANNELS 6 Xposition Yposition Zposition Zrotation Xrotation Yrotation
                JOINT RightFinger1
                {
                  OFFSET -0.7932 -9.0691 2.5189
                  CHANNELS 6 Xposition Yposition Zposition Zrotation Xrotation Yrotation
                  JOINT RightFinger11
                  {
                    OFFSET 0.8272 -3.3923 0.5977
                    CHANNELS 6 Xposition Yposition Zposition Zrotation Xrotation Yrotation
                    JOINT RightFinger12
                    {
                      OFFSET 0.565 -2.3158 0.4082
                      CHANNELS 6 Xposition Yposition Zposition Zrotation Xrotation Yrotation
                      End Site
                      {
                        OFFSET 0.4919 -1.6479 0.2673
                      }
                    }
                  }
                }
                JOINT RightFinger2
                {
                  OFFSET -0.916 -9.2044 0.2193
                  CHANNELS 6 Xposition Yposition Zposition Zrotation Xrotation Yrotation
                  JOINT RightFinger21
                  {
                    OFFSET -0.0117 -4.1944 -0.0248
                    CHANNELS 6 Xposition Yposition Zposition Zrotation Xrotation Yrotation
                    JOINT RightFinger22
                    {
                      OFFSET -0.0071 -2.3249 -0.0142
                      CHANNELS 6 Xposition Yposition Zposition Zrotation Xrotation Yrotation
                      End Site
                      {
                        OFFSET 0.1475 -2.0882 0.0028
                      }
                    }
                  }
                }
                JOINT RightFinger3
                {
                  OFFSET -0.6113 -8.7231 -2.0637
                  CHANNELS 6 Xposition Yposition Zposition Zrotation Xrotation Yrotation
                  JOINT RightFinger31
                  {
                    OFFSET 0.1927 -3.8059 -0.2383
                    CHANNELS 6 Xposition Yposition Zposition Zrotation Xrotation Yrotation
                    JOINT RightFinger32
                    {
                      OFFSET 0.1091 -2.1688 -0.1362
                      CHANNELS 6 Xposition Yposition Zposition Zrotation Xrotation Yrotation
                      End Site
                      {
                        OFFSET 0.2358 -1.9176 -0.0906
                      }
                    }
                  }
                }
                JOINT RightFinger4
                {
                  OFFSET 0.6151 -8.0947 -3.564
                  CHANNELS 6 Xposition Yposition Zposition Zrotation Xrotation Yrotation
                  JOINT RightFinger41
                  {
                    OFFSET 0.4882 -2.341 -0.6462
                    CHANNELS 6 Xposition Yposition Zposition Zrotation Xrotation Yrotation
                    JOINT RightFinger42
                    {
                      OFFSET 0.3574 -1.7166 -0.4742
                      CHANNELS 6 Xposition Yposition Zposition Zrotation Xrotation Yrotation
                      End Site
                      {
                        OFFSET 0.4187 -1.5237 -0.3496
                      }
                    }
                  }
                }
                JOINT RightFinger0
                {
                  OFFSET 1.4199 -1.8761 1.4221
                  CHANNELS 6 Xposition Yposition Zposition Zrotation Xrotation Yrotation
                  JOINT RightFinger01
                  {
                    OFFSET 1.1472 -3.4929 2.6336
                    CHANNELS 6 Xposition Yposition Zposition Zrotation Xrotation Yrotation
                    JOINT RightFinger02
                    {
                      OFFSET 0.8229 -2.3 1.6571
                      CHANNELS 6 Xposition Yposition Zposition Zrotation Xrotation Yrotation
                      End Site
                      {
                        OFFSET 0.5822 -1.6914 1.1582
                      }
                    }
                  }
                }
              }
            }
          }
        }
      }
    }
  }
  JOINT RightHip
  {
    OFFSET -9.412 3.9771 -0.7758
    CHANNELS 6 Xposition Yposition Zposition Zrotation Xrotation Yrotation
    JOINT RightKnee
    {
      OFFSET -0.7531 -40.938 0
      CHANNELS 6 Xposition Yposition Zposition Zrotation Xrotation Yrotation
      JOINT RightAnkle
      {
        OFFSET 0 -40.1986 0
        CHANNELS 6 Xposition Yposition Zposition Zrotation Xrotation Yrotation
        JOINT RightToe
        {
          OFFSET 0 -4.4182 9.239
          CHANNELS 6 Xposition Yposition Zposition Zrotation Xrotation Yrotation
          End Site
          {
            OFFSET 0 0 6.1981
          }
        }
      }
    }
  }
  JOINT LeftHip
  {
    OFFSET 9.4119 3.9773 -0.7758
    CHANNELS 6 Xposition Yposition Zposition Zrotation Xrotation Yrotation
    JOINT LeftKnee
    {
      OFFSET 0.7532 -40.9383 0
      CHANNELS 6 Xposition Yposition Zposition Zrotation Xrotation Yrotation
      JOINT LeftAnkle
      {
        OFFSET 0 -40.1986 0
        CHANNELS 6 Xposition Yposition Zposition Zrotation Xrotation Yrotation
        JOINT LeftToe
        {
          OFFSET 0 -4.4182 9.239
          CHANNELS 6 Xposition Yposition Zposition Zrotation Xrotation Yrotation
          End Site
          {
            OFFSET 0 0 6.1981
          }
        }
      }
    }
  }
}
MOTION
Frames:	4
Frame Time:	0.0333333
-35.8381 6.18827 4.44512 5.64008e-015 60.9968 180 0 8.7983 -4.7612 -0.584703 3.98348 -0.0446864 0 8.0291 0.4195 -1.17055 7.96718 -0.0486845 0 9.9351 -2.2114 -1.17055 7.96719 -0.0486842 0 22.3885 -0.4656 -1.31363e-005 -29.3993 -2.03651e-006 -0.0001 12.643 3.4389 6.09628e-007 -20.0017 1.09755e-007 2.2603 21.606 7.4023 -5.71031 19.4736 -40.3494 13.5163 -1.1332 -5.0146 22.4901 50.6928 40.5665 -0.0995 -28.05 -0.2431 -28.1952 -77.2532 -19.9165 0.0679 -23.3996 -0.1402 -11.6366 -6.52842 4.27999 0.7932 -9.069 2.5189 3.06039e-006 -8.53331e-008 -7.18466e-006 -0.8272 -3.3923 0.5977 -3.97569e-016 -1.59028e-015 -2.28602e-015 -0.5649 -2.3158 0.4082 1.19271e-015 -1.59028e-015 1.09332e-015 0.9159 -9.2044 0.2193 3.06039e-006 -8.53331e-008 -7.18466e-006 0.0117 -4.1944 -0.0248 -0.0128075 0.00230183 8.36525e-005 0.0071 -2.3249 -0.0142 3.35197e-006 8.13983e-009 6.28594e-007 0.6113 -8.7231 -2.0637 3.06039e-006 -8.53331e-008 -7.18466e-006 -0.1927 -3.8059 -0.2383 -0.0161524 0.00301123 0.000869066 -0.1091 -2.1688 -0.1362 7.95139e-016 -3.18055e-015 1.78906e-015 -0.6151 -8.0947 -3.5641 3.06039e-006 -8.53331e-008 -7.18466e-006 -0.4882 -2.341 -0.6462 -0.0126188 0.00311857 0.00283871 -0.3575 -1.7167 -0.4742 3.97569e-016 0 5.06901e-015 -1.42 -1.8761 1.4223 3.06039e-006 -8.53331e-008 -7.18466e-006 -1.1471 -3.4929 2.6334 -3.97569e-016 -1.59028e-015 -2.28602e-015 -0.823 -2.3 1.6571 1.19271e-015 -1.59028e-015 1.09332e-015 -2.2603 21.606 7.4023 3.69844 19.0504 35.5377 -13.5187 -1.1334 -5.0155 -26.4599 49.9214 -33.5914 0.0994 -28.0499 -0.2431 25.1527 -77.5328 16.1804 -0.0679 -23.3996 -0.1402 11.4897 -6.45547 -4.20782 -0.7932 -9.0691 2.5189 -1.59028e-015 4.77083e-015 6.95746e-016 0.8272 -3.3923 0.5977 -2.38542e-015 1.59028e-015 6.95746e-015 0.565 -2.3158 0.4082 -7.95139e-016 1.59028e-015 3.8763e-015 -0.916 -9.2044 0.2193 -1.59028e-015 4.77083e-015 6.95746e-016 -0.0117 -4.1944 -0.0248 0.0129509 0.00231838 -8.72424e-005 -0.0071 -2.3249 -0.0142 2.7311e-031 -4.77083e-015 3.27995e-015 -0.6113 -8.7231 -2.0637 -1.59028e-015 4.77083e-015 6.95746e-016 0.1927 -3.8059 -0.2383 0.0163351 0.00302025 -0.000875711 0.1091 -2.1688 -0.1362 3.97569e-016 0 -6.95746e-015 0.6151 -8.0947 -3.564 -1.59028e-015 4.77083e-015 6.95746e-016 0.4882 -2.341 -0.6462 0.0145986 0.00367951 -0.00326647 0.3574 -1.7166 -0.4742 -8.74653e-015 4.46356e-007 3.3197e-014 1.4199 -1.8761 1.4221 -1.59028e-015 4.77083e-015 6.95746e-016 1.1472 -3.4929 2.6336 -2.38542e-015 1.59028e-015 6.95746e-015 0.8229 -2.3 1.6571 -7.95139e-016 1.59028e-015 3.8763e-015 -9.412 3.9771 -0.7758 -34.165 -18.0738 -51.0418 -0.7531 -40.938 -1.77636e-015 -84.0156 48.8569 108.641 0 -40.1986 0 17.3459 5.38379 -33.853 0 -4.4182 9.239 -1.63918e-006 -4.6583e-007 -4.52315e-007 9.4119 3.9773 -0.7758 33.2631 -18.3658 51.2836 0.7532 -40.9383 0 85.7124 48.8475 -109.958 7.10543e-015 -40.1986 0 -16.5684 4.45378 34.516 0 -4.4182 9.239 4.09784e-007 -1.57308e-006 1.13128e-007 
-35.838 6.1886 4.44469 5.64009e-015 60.9968 180 0 8.7983 -4.7612 -0.588228 3.88501 -0.0426235 0 8.0291 0.4195 -1.17763 7.77022 -0.0453176 0 9.9351 -2.2114 -1.17763 7.77026 -0.0453178 -7.10543e-015 22.3885 -0.4656 -5.92735e-006 -28.6423 -9.74253e-007 -0.0001 12.643 3.4389 9.0625e-007 -20.0017 -1.27108e-008 2.2603 21.606 7.4023 -5.93553 19.6629 -39.9732 13.5163 -1.1332 -5.0146 22.7331 50.6861 40.3993 -0.0995 -28.05 -0.2431 -28.1932 -77.2523 -19.9146 0.0679 -23.3996 -0.1402 -11.9177 -6.31529 4.03091 0.7932 -9.06901 2.5189 3.97569e-015 1.59028e-015 -2.82274e-014 -0.8272 -3.3923 0.5977 3.97569e-015 1.59028e-015 -3.16068e-014 -0.5649 -2.3158 0.4082 4.77083e-015 1.59028e-015 -2.8128e-014 0.9159 -9.20441 0.2193 3.97569e-015 1.59028e-015 -2.82274e-014 0.0117 -4.19441 -0.0248 -0.0127522 0.00231618 8.51314e-005 0.0071 -2.3249 -0.0142 -3.97569e-016 -1.59028e-015 8.54774e-015 0.6113 -8.72311 -2.0637 3.97569e-015 1.59028e-015 -2.82274e-014 -0.1927 -3.8059 -0.2383 -0.0160832 0.0030113 0.000867726 -0.1091 -2.1688 -0.1362 3.97569e-016 0 -2.38542e-015 -0.6151 -8.09471 -3.5641 3.97569e-015 1.59028e-015 -2.82274e-014 -0.4882 -2.341 -0.6462 -0.0125988 0.00312455 0.0028334 -0.3575 -1.7167 -0.4742 7.95139e-016 -1.27222e-014 -3.37934e-015 -1.42 -1.8761 1.4223 3.97569e-015 1.59028e-015 -2.82274e-014 -1.1471 -3.4929 2.6334 3.97569e-015 1.59028e-015 -3.16068e-014 -0.823 -2.3 1.6571 4.77083e-015 1.59028e-015 -2.8128e-014 -2.2603 21.606 7.4023 3.97617 19.2576 35.1495 -13.5187 -1.1334 -5.0155 -26.7481 49.888 -33.4015 0.0994 -28.0499 -0.2431 25.1553 -77.5341 16.1831 -0.0679 -23.3996 -0.1402 11.7784 -6.24607 -3.9451 -0.7932 -9.06911 2.5189 1.19271e-015 1.59028e-015 7.95139e-016 0.8272 -3.3923 0.5977 1.59028e-015 -1.59028e-015 5.96354e-016 0.565 -2.3158 0.4082 -2.06902e-031 -4.77083e-015 -2.48481e-015 -0.916 -9.20441 0.2193 1.19271e-015 1.59028e-015 7.95139e-016 -0.0117 -4.1944 -0.0248 0.0129542 0.00231356 -8.42471e-005 -0.0071 -2.3249 -0.0142 2.78299e-015 -9.54166e-015 1.59028e-015 -0.6113 -8.72311 -2.0637 1.19271e-015 1.59028e-015 7.95139e-016 0.1927 -3.8059 -0.2383 0.0163286 0.0030374 -0.000876199 0.1091 -2.1688 -0.1362 -3.18055e-015 0 -5.96354e-016 0.6151 -8.09471 -3.564 1.19271e-015 1.59028e-015 7.95139e-016 0.4882 -2.341 -0.6462 0.014583 0.00367593 -0.00326067 0.3574 -1.7166 -0.4742 1.59028e-015 0 -2.78299e-015 1.4199 -1.8761 1.4221 1.19271e-015 1.59028e-015 7.95139e-016 1.1472 -3.4929 2.6336 1.59028e-015 -1.59028e-015 5.96354e-016 0.8229 -2.3 1.6571 -2.06902e-031 -4.77083e-015 -2.48481e-015 -9.412 3.9771 -0.7758 -34.9543 -17.9977 -52.4595 -0.7531 -40.938 0 -84.1982 48.4971 109.922 0 -40.1986 0 16.7469 5.6801 -34.2805 0 -4.4182 9.239 7.68725e-007 3.06343e-006 2.78673e-006 9.4119 3.9773 -0.7758 34.0535 -18.2938 52.7445 0.7532 -40.9383 0 85.9142 48.4312 -111.392 0 -40.1986 0 -15.986 4.72552 35.0989 1.42109e-014 -4.4182 9.239 1.74862e-006 -2.76981e-006 -6.96451e-006 
-35.8379 6.18887 4.44433 5.64009e-015 60.9968 180 0 8.7983 -4.7612 -0.591362 3.79625 -0.0407585 -7.10543e-015 8.0291 0.4195 -1.18392 7.59273 -0.0422865 0 9.9351 -2.2114 -1.18393 7.59273 -0.0422864 7.10543e-015 22.3885 -0.4656 -1.14666e-005 -27.9599 -1.23857e-006 -0.0001 12.643 3.4389 7.49342e-007 -20.0017 -5.00934e-007 2.2603 21.606 7.4023 -6.13961 19.8321 -39.6334 13.5163 -1.1332 -5.0146 22.9521 50.6794 40.2486 -0.0995 -28.05 -0.2431 -28.1909 -77.2514 -19.9122 0.0679 -23.3996 -0.1402 -12.1698 -6.12231 3.80776 0.7932 -9.06901 2.5189 7.35187e-006 -3.99801e-006 -1.81113e-006 -0.8272 -3.3923 0.5977 -3.97569e-016 0 4.57205e-015 -0.5649 -2.3158 0.4082 -4.70412e-006 4.00777e-006 -2.47274e-006 0.9159 -9.20441 0.2193 7.35187e-006 -3.99801e-006 -1.81113e-006 0.0117 -4.1944 -0.0248 -0.0127673 0.00231344 8.26652e-005 0.0071 -2.3249 -0.0142 -1.98785e-015 -1.59028e-015 -2.98177e-016 0.6113 -8.72311 -2.0637 7.35187e-006 -3.99801e-006 -1.81113e-006 -0.1927 -3.8059 -0.2383 -0.0161122 0.00301096 0.000865213 -0.1091 -2.1688 -0.1362 4.96564e-032 -1.59028e-015 1.78906e-015 -0.6151 -8.09471 -3.5641 7.35187e-006 -3.99801e-006 -1.81113e-006 -0.4882 -2.341 -0.6462 -0.0125109 0.00310597 0.00280788 -0.3575 -1.7167 -0.4742 -1.24605e-006 -4.23704e-008 2.74538e-006 -1.42 -1.8761 1.4223 7.35187e-006 -3.99801e-006 -1.81113e-006 -1.1471 -3.4929 2.6334 -3.97569e-016 0 4.57205e-015 -0.823 -2.3 1.6571 -4.70412e-006 4.00777e-006 -2.47274e-006 -2.2603 21.606 7.4023 4.22772 19.4425 34.7986 -13.5187 -1.1334 -5.0155 -27.0069 49.8576 -33.2312 0.0994 -28.0499 -0.2431 25.1584 -77.5354 16.1862 -0.0679 -23.3996 -0.1402 12.0372 -6.05634 -3.70966 -0.7932 -9.06911 2.5189 -2.38542e-015 1.59028e-015 5.56597e-015 0.8272 -3.3923 0.5977 1.98785e-015 1.59028e-015 -8.94531e-016 0.565 -2.3158 0.4082 3.97569e-016 0 -9.93923e-016 -0.916 -9.2044 0.2193 -2.38542e-015 1.59028e-015 5.56597e-015 -0.0117 -4.1944 -0.0248 0.0129552 0.00231052 -8.80881e-005 -0.0071 -2.3249 -0.0142 -3.18055e-015 3.18055e-015 1.49089e-015 -0.6113 -8.7231 -2.0637 -2.38542e-015 1.59028e-015 5.56597e-015 0.1927 -3.8059 -0.2383 0.0163308 0.003035 -0.000866564 0.1091 -2.1688 -0.1362 -2.38542e-015 0 5.96354e-016 0.6151 -8.0947 -3.564 -2.38542e-015 1.59028e-015 5.56597e-015 0.4882 -2.341 -0.6462 0.0145829 0.00367828 -0.00326187 0.3574 -1.7166 -0.4742 -7.55382e-015 -3.18055e-015 2.59414e-014 1.4199 -1.8761 1.4221 -2.38542e-015 1.59028e-015 5.56597e-015 1.1472 -3.4929 2.6336 1.98785e-015 1.59028e-015 -8.94531e-016 0.8229 -2.3 1.6571 3.97569e-016 0 -9.93923e-016 -9.412 3.9771 -0.7758 -35.6641 -17.9132 -53.7371 -0.7531 -40.938 0 -84.3497 48.1725 111.067 0 -40.1986 0 16.2101 5.95326 -34.6625 1.77636e-015 -4.4182 9.239 -3.18055e-015 -4.77083e-015 1.27222e-014 9.4119 3.9773 -0.7758 34.7643 -18.2126 54.0611 0.7532 -40.9383 0 86.0798 48.0555 -112.673 0 -40.1986 7.10543e-015 -15.4649 4.97832 35.6212 0 -4.4182 9.239 -2.45518e-006 -1.07555e-006 -6.92204e-007 
-35.8378 6.18912 4.44401 5.64009e-015 60.9968 180 0 8.7983 -4.7612 -0.594473 3.70744 -0.0388845 7.10543e-015 8.0291 0.4195 -1.19017 7.41507 -0.0392492 -7.10543e-015 9.9351 -2.2114 -1.19017 7.41508 -0.0392488 -7.10543e-015 22.3885 -0.4656 7.29094e-007 -27.2762 -6.27943e-009 -0.0001 12.643 3.4389 6.8214e-007 -20.0017 -8.33533e-008 2.2603 21.606 7.4023 -6.34499 20 -39.2926 13.5163 -1.1332 -5.0146 23.1673 50.6753 40.1009 -0.0995 -28.05 -0.2431 -28.1966 -77.2537 -19.9179 0.0679 -23.3996 -0.1402 -12.421 -5.92831 3.58548 0.7932 -9.06901 2.5189 8.38005e-007 -1.19944e-007 1.56511e-007 -0.8272 -3.3923 0.5977 7.95139e-016 4.77083e-015 3.67752e-015 -0.5649 -2.3158 0.4082 3.97569e-016 4.77083e-015 -0 0.9159 -9.20441 0.2193 8.38005e-007 -1.19944e-007 1.56511e-007 0.0117 -4.1944 -0.0248 -0.0128894 0.00233975 7.95255e-005 0.0071 -2.3249 -0.0142 3.97569e-016 0 1.49089e-015 0.6113 -8.72311 -2.0637 8.38005e-007 -1.19944e-007 1.56511e-007 -0.1927 -3.8059 -0.2383 -0.0161168 0.00299879 0.000867481 -0.1091 -2.1688 -0.1362 -1.19271e-015 0 -2.98177e-015 -0.6151 -8.0947 -3.5641 8.38005e-007 -1.19944e-007 1.56511e-007 -0.4882 -2.341 -0.6462 -0.0125446 0.00311687 0.00280992 -0.3575 -1.7167 -0.4742 4.94696e-006 -4.57905e-006 2.30921e-006 -1.42 -1.8761 1.4223 8.38005e-007 -1.19944e-007 1.56511e-007 -1.1471 -3.4929 2.6334 7.95139e-016 4.77083e-015 3.67752e-015 -0.823 -2.3 1.6571 3.97569e-016 4.77083e-015 -0 -2.2603 21.606 7.4023 4.48082 19.6259 34.4464 -13.5187 -1.1334 -5.0155 -27.2673 49.8247 -33.0597 0.0994 -28.0499 -0.2431 25.1569 -77.5348 16.1846 -0.0679 -23.3996 -0.1402 12.2953 -5.86549 -3.47514 -0.7932 -9.06911 2.5189 -4.90478e-007 -7.7484e-007 -1.69101e-006 0.8272 -3.3923 0.5977 3.97569e-016 3.18055e-015 3.67752e-015 0.565 -2.3158 0.4082 3.97569e-016 1.59028e-015 3.47873e-015 -0.916 -9.20441 0.2193 -4.90478e-007 -7.7484e-007 -1.69101e-006 -0.0117 -4.1944 -0.0248 0.0129492 0.00230643 -8.75463e-005 -0.0071 -2.3249 -0.0142 1.16693e-030 -1.43125e-014 4.67144e-015 -0.6113 -8.7231 -2.0637 -4.90478e-007 -7.7484e-007 -1.69101e-006 0.1927 -3.8059 -0.2383 0.0163254 0.00303004 -0.000874813 0.1091 -2.1688 -0.1362 -1.59028e-015 -1.59028e-015 8.94531e-016 0.6151 -8.0947 -3.564 -4.90478e-007 -7.7484e-007 -1.69101e-006 0.4882 -2.341 -0.6462 0.0145838 0.00366993 -0.00326148 0.3574 -1.7166 -0.4742 7.95139e-016 -1.59028e-015 -4.67144e-015 1.4199 -1.8761 1.4221 -4.90478e-007 -7.7484e-007 -1.69101e-006 1.1472 -3.4929 2.6336 3.97569e-016 3.18055e-015 3.67752e-015 0.8229 -2.3 1.6571 3.97569e-016 1.59028e-015 3.47873e-015 -9.412 3.9771 -0.7758 -36.3727 -17.8128 -55.0149 -0.7531 -40.938 -1.77636e-015 -84.4874 47.8459 112.203 0 -40.1986 0 15.6761 6.23211 -35.042 -1.77636e-015 -4.4182 9.239 -8.79101e-007 3.97845e-006 2.32504e-006 9.4119 3.9773 -0.7758 35.4741 -18.1153 55.3781 0.7532 -40.9383 0 86.2283 47.6774 -113.943 1.42109e-014 -40.1986 7.10543e-015 -14.9472 5.23832 36.1416 0 -4.4182 9.239 2.21383e-006 2.21264e-006 -6.9641e-006 
